<svg height="511pt" viewBox="0 -3 511.99963 511" width="511pt" xmlns="http://www.w3.org/2000/svg"><path d="m496.40625 80.144531c-.925781-5.179687-4.046875-9.515625-8.535156-12.011719 1.074218-5.875-.925782-12.058593-5.679688-16.171874l-55.230468-47.78125c-8.105469-7.015626-20.773438-3.5625-24.175782 6.636718l-41.152344 123.457032c-17.003906-1.40625-31.992187 10.054687-35.648437 26.070312h-35.339844c-4.144531 0-7.5 3.359375-7.5 7.5s3.355469 7.5 7.5 7.5h35.339844c7.804687 33.570312 55.472656 36.503906 65.691406 0h105.285157v77.960938c0 43.214843-35.15625 78.371093-78.371094 78.371093h-182.785156c-43.214844 0-78.371094-35.15625-78.371094-78.371093v-66.460938c0-6.339844 5.160156-11.5 11.5-11.5h93.710937c4.144531 0 7.5-3.359375 7.5-7.5s-3.355469-7.5-7.5-7.5h-45.476562l-101.21875-101.21875c-11.582031-11.582031-26.976563-17.957031-43.351563-17.957031h-51.3125c-11.738281 0-21.285156 9.546875-21.285156 21.285156 0 11.734375 9.546875 21.28125 21.285156 21.28125h51.308594c5.007812 0 9.714844 1.949219 13.253906 5.492187l73.082032 73.078126c-9.667969 3.957031-16.496094 13.464843-16.496094 24.535156v66.464844c0 51.484374 41.886718 93.367187 93.371094 93.367187h7.695312l43.429688 32.050781-24.273438 17.910156c-9.300781-5.988281-20.363281-9.464843-32.222656-9.464843-26.710938 0-50.359375 17.964843-57.507813 43.6875-1.109375 3.992187 1.226563 8.125 5.21875 9.234375 3.988281 1.105468 8.125-1.226563 9.234375-5.21875 5.351563-19.257813 23.054688-32.707032 43.054688-32.707032 18.082031 0 33.695312 10.796876 40.722656 26.28125.015625.035157.03125.070313.046875.101563.046875.101563.089844.203125.136719.304687.277344.628907.539062 1.269532.789062 1.914063.011719.027344.023438.050781.035156.078125 1.914063 4.976562 2.964844 10.375 2.964844 16.019531 0 24.644531-20.050781 44.695313-44.695312 44.695313-20 0-37.703125-13.449219-43.054688-32.707032-1.109375-3.988281-5.246094-6.324218-9.234375-5.214843-3.992187 1.109375-6.328125 5.242187-5.21875 9.230469 7.148438 25.722656 30.796875 43.6875 57.507813 43.6875 32.917968 0 59.695312-26.777344 59.695312-59.695313 0-5.535156-.757812-10.902344-2.175781-15.992187l34.820313-25.695313 34.824218 25.695313c-1.417968 5.09375-2.175781 10.457031-2.175781 15.992187 0 32.917969 26.777344 59.695313 59.695313 59.695313 32.914062 0 59.695312-26.777344 59.695312-59.695313 0-32.914063-26.78125-59.695313-59.695312-59.695313-11.863282 0-22.925782 3.476563-32.226563 9.464844l-24.269531-17.910156 43.425781-32.046875h16.542969c51.484375 0 93.371094-41.886719 93.371094-93.371094v-85.460937c.894531 4.019531-13.269532-74.902344-15.554688-87.695313zm-423.808594-11.410156h-51.3125c-3.46875 0-6.285156-2.816406-6.285156-6.28125 0-3.46875 2.816406-6.285156 6.285156-6.285156h51.308594c12.371094 0 24 4.816406 32.75 13.5625l90.613281 90.613281h-17.777343l-81.722657-81.722656c-6.375-6.375-14.847656-9.886719-23.859375-9.886719zm209.328125 347.941406c-2.125-3.621093-4.628906-7.007812-7.472656-10.109375l25.105469-18.527344 10.585937 7.8125zm177.886719 30.1875c0 24.644531-20.050781 44.695313-44.695312 44.695313-24.644532 0-44.695313-20.050782-44.695313-44.695313 0-5.640625 1.046875-11.035156 2.960937-16.007812.011719-.03125.023438-.058594.039063-.089844.25-.648437.515625-1.292969.796875-1.925781.039062-.09375.082031-.1875.121094-.28125.019531-.039063.035156-.078125.054687-.117188 7.03125-15.480468 22.640625-26.273437 40.722657-26.273437 24.644531 0 44.695312 20.046875 44.695312 44.695312zm-96.191406-30.1875-36.382813-26.851562c-.003906 0-.007812-.003907-.011719-.007813l-23.214843-17.128906c-.003907-.003906-.003907-.003906-.007813-.007812l-35.246094-26.007813h21.171876l49.773437 36.730469 1.832031 1.351562s.003906 0 .003906.003906l29.554688 21.808594c-2.839844 3.101563-5.34375 6.488282-7.472656 10.109375zm-48.429688-70.003906h15.167969l-7.585937 5.597656zm30.796875 22.730469-10.582031-7.8125 20.214844-14.917969h21.167968zm71.039063-353.875c.019531-.019532.070312-.035156.121094-.003906 56.90625 49.917968 56.046874 47.324218 56.007812 49.527343-.046875 2.3125 2.609375-1.722656-93.644531 76.195313-1.140625-.890625-2.335938-1.703125-3.578125-2.433594zm-63.527344 170.230468c-7.714844-2.300781-13.355469-9.460937-13.355469-17.914062 0-10.304688 8.382813-18.6875 18.6875-18.6875 10.304688 0 18.6875 8.382812 18.6875 18.6875 0 12.46875-12.066406 21.488281-24.019531 17.914062zm38.175781-25.414062c-.59375-2.597656-1.480469-5.078125-2.675781-7.484375l89.015625-71.4375c1.332031-1.070313 3.324219-.332031 3.625 1.359375l13.859375 77.5625zm0 0"/></svg>