<svg height="512pt" viewBox="0 -3 512 512" width="512pt" xmlns="http://www.w3.org/2000/svg"><g fill="#475a72"><path d="m227.773438 213.925781c-3.636719 0-7.269532-1.386719-10.042969-4.160156l-131.546875-131.542969c-5.105469-5.109375-11.894532-7.921875-19.117188-7.921875h-52.863281c-7.84375 0-14.203125-6.355469-14.203125-14.199219s6.359375-14.203124 14.203125-14.203124h52.863281c14.808594 0 28.730469 5.765624 39.203125 16.238281l131.542969 131.546875c5.546875 5.546875 5.546875 14.539062 0 20.085937-2.769531 2.769531-6.40625 4.15625-10.039062 4.15625zm0 0"/><path d="m229.691406 466.347656c-4.355468 0-8.652344-1.996094-11.4375-5.769531-4.65625-6.3125-3.316406-15.203125 2.996094-19.859375l184.359375-136.046875c6.3125-4.65625 15.203125-3.316406 19.859375 2.996094 4.660156 6.3125 3.316406 15.199219-2.992188 19.859375l-184.363281 136.046875c-2.539062 1.871093-5.492187 2.773437-8.421875 2.773437zm0 0"/><path d="m283.457031 452.144531c0 29.699219-24.078125 53.773438-53.777343 53.773438-29.699219 0-53.773438-24.074219-53.773438-53.773438s24.074219-53.773437 53.773438-53.773437c29.699218 0 53.777343 24.074218 53.777343 53.773437zm0 0"/></g><path d="m229.679688 398.371094c-4.609376 0-9.078126.582031-13.347657 1.671875 23.238281 5.9375 40.425781 27.011719 40.425781 52.101562 0 25.089844-17.1875 46.164063-40.425781 52.101563 4.269531 1.089844 8.738281 1.671875 13.347657 1.671875 29.699218 0 53.777343-24.074219 53.777343-53.773438s-24.078125-53.773437-53.777343-53.773437zm0 0" fill="#364457"/><path d="m329.769531 395.933594 23.917969-17.648438-23.917969-17.648437-23.917969 17.648437zm0 0" fill="#364457"/><path d="m319.761719 403.320312 23.917969-17.648437-23.917969-17.648437-23.917969 17.648437zm0 0" fill="#364457"/><path d="m419.941406 466.347656c-2.929687 0-5.886718-.902344-8.421875-2.773437l-184.363281-136.050781c-6.308594-4.65625-7.648438-13.546876-2.992188-19.859376 4.65625-6.308593 13.550782-7.648437 19.859376-2.992187l184.359374 136.046875c6.3125 4.65625 7.652344 13.546875 2.996094 19.855469-2.785156 3.777343-7.082031 5.773437-11.4375 5.773437zm0 0" fill="#475a72"/><path d="m473.726562 452.144531c0 29.699219-24.074218 53.773438-53.773437 53.773438s-53.777344-24.074219-53.777344-53.773438 24.078125-53.773437 53.777344-53.773437 53.773437 24.074218 53.773437 53.773437zm0 0" fill="#475a72"/><path d="m419.953125 398.371094c-5.390625 0-10.59375.800781-15.503906 2.277344 22.136719 6.65625 38.269531 27.1875 38.269531 51.496093 0 24.308594-16.132812 44.839844-38.269531 51.496094 4.910156 1.476563 10.113281 2.277344 15.503906 2.277344 29.699219 0 53.773437-24.074219 53.773437-53.773438s-24.074218-53.773437-53.773437-53.773437zm0 0" fill="#364457"/><path d="m420.894531 341.195312h-183.042969c-50.316406 0-91.105468-40.785156-91.105468-91.101562v-66.410156c0-10.492188 8.507812-19.003906 19.003906-19.003906h346.25v85.414062c0 50.316406-40.789062 91.101562-91.105469 91.101562zm0 0" fill="#4cb4a4"/><path d="m488.082031 228.550781c0 48.152344-39.035156 87.183594-87.183593 87.183594h-190.886719c-16.113281 0-32.785157-4.5-45.90625-12.136719 16.554687 22.78125 43.410156 37.59375 73.726562 37.601563h183.082031c50.308594-.011719 91.085938-40.796875 91.085938-91.105469v-85.410156h-23.917969zm0 0" fill="#41998b"/><path d="m361.46875 164.683594 53.109375-159.339844c1.761719-5.2773438 8.316406-7.074219 12.523437-3.4375l56.898438 49.230469c4.746094 4.105469 4.609375 11.507812-.285156 15.433593zm0 0" fill="#ffb258"/><path d="m484 51.136719-56.898438-49.230469c-4.207031-3.640625-10.761718-1.8398438-12.523437 3.4375l-5.628906 16.886719 55.734375 48.222656c2.613281 2.261719 3.738281 5.523437 3.410156 8.65625l15.621094-12.539063c4.894531-3.925781 5.03125-11.328124.285156-15.433593zm0 0" fill="#e8a250"/><path d="m361.46875 164.683594 118.449219-95.0625c5.949219-4.773438 14.835937-1.441406 16.179687 6.066406l15.902344 88.996094zm0 0" fill="#ffb258"/><path d="m373.335938 164.683594h12.222656l105.5625-84.71875c2.433594-1.957032 3.691406-4.769532 3.753906-7.613282-2.953125-5.046874-9.984375-6.722656-14.957031-2.730468l-102.25 82.058594zm0 0" fill="#e8a250"/><path d="m496.097656 75.6875c-1.34375-7.507812-10.230468-10.84375-16.179687-6.066406l-9.960938 7.992187 18.125 87.070313h23.917969zm0 0" fill="#e8a250"/><path d="m388.945312 164.683594c0 14.898437-12.082031 26.976562-26.980468 26.976562-14.902344 0-26.980469-12.078125-26.980469-26.976562 0-14.902344 12.078125-26.980469 26.980469-26.980469 14.898437 0 26.980468 12.078125 26.980468 26.980469zm0 0" fill="#ffb258"/></svg>